# xmcd
#
# Track frame offsets:
# 150
# 37779
# 55289
# 73955
# 110371
# 131281
# 151788
#
# Disc length: 2494 seconds
#
# Revision: 0
# Processed by: cddbd v1.5.1PL0 Copyright (c) Steve Scherf et al.
# Submitted via: Audion 3.0.2 (http://www.panic.com/audion/)
#
DISCID=5309bc07
DTITLE=TMBB - Mal drann schnuppern
DYEAR=1900
DGENRE=
TTITLE0=höhäpijpl
TTITLE1=bgiztpouhz#opu+pojk
TTITLE2=huüoi0´9iplo+po
TTITLE3=h9t6bäp98jm´##i +ß.
TTITLE4=´ß9k97l0h0t np+oüöß0ß
TTITLE5=iuzm+ßi ´ßkihu96hm+
TTITLE6=ußü097jm´,ß+ßß.#üßö
EXTD=
EXTT0=
EXTT1=
EXTT2=
EXTT3=
EXTT4=
EXTT5=
EXTT6=
PLAYORDER=
